<svg width="24" height="24" viewBox="0 0 24 24" fill="none" xmlns="http://www.w3.org/2000/svg">
<path d="M12 3C7 3 3 7 3 12C3 17 7 21 12 21C17 21 21 17 21 12C21 7 17 3 12 3ZM12 19.5C8.1 19.5 4.5 15.9 4.5 12C4.5 8.1 8.1 4.5 12 4.5C15.9 4.5 19.5 8.1 19.5 12C19.5 15.9 15.9 19.5 12 19.5ZM13 8H11V11H8L7.95 12.9L11 13V16H13V13H16V11H13V8ZM12 3C7 3 3 7 3 12C3 17 7 21 12 21C17 21 21 17 21 12C21 7 17 3 12 3ZM12 19.5C8.1 19.5 4.5 15.9 4.5 12C4.5 8.1 8.1 4.5 12 4.5C15.9 4.5 19.5 8.1 19.5 12C19.5 15.9 15.9 19.5 12 19.5ZM13 8H11V11H8L7.95 12.9L11 13V16H13V13H16V11H13V8Z" fill="#1E1E1E"/>
</svg>
