<svg width="24" height="24" viewBox="0 0 24 24" fill="none" xmlns="http://www.w3.org/2000/svg">
<path fill-rule="evenodd" clip-rule="evenodd" d="M5.25 4.6875H8.625C8.77418 4.6875 8.91726 4.74676 9.02275 4.85225C9.12824 4.95774 9.1875 5.10082 9.1875 5.25V8.625C9.1875 8.77418 9.12824 8.91726 9.02275 9.02275C8.91726 9.12824 8.77418 9.1875 8.625 9.1875H5.25C5.10082 9.1875 4.95774 9.12824 4.85225 9.02275C4.74676 8.91726 4.6875 8.77418 4.6875 8.625V5.25C4.6875 5.10082 4.74676 4.95774 4.85225 4.85225C4.95774 4.74676 5.10082 4.6875 5.25 4.6875ZM3 5.25C3 4.65326 3.23705 4.08097 3.65901 3.65901C4.08097 3.23705 4.65326 3 5.25 3H8.625C9.22174 3 9.79403 3.23705 10.216 3.65901C10.6379 4.08097 10.875 4.65326 10.875 5.25V8.625C10.875 9.22174 10.6379 9.79403 10.216 10.216C9.79403 10.6379 9.22174 10.875 8.625 10.875H5.25C4.65326 10.875 4.08097 10.6379 3.65901 10.216C3.23705 9.79403 3 9.22174 3 8.625V5.25ZM15.375 4.6875H18.75C18.8992 4.6875 19.0423 4.74676 19.1477 4.85225C19.2532 4.95774 19.3125 5.10082 19.3125 5.25V8.625C19.3125 8.77418 19.2532 8.91726 19.1477 9.02275C19.0423 9.12824 18.8992 9.1875 18.75 9.1875H15.375C15.2258 9.1875 15.0827 9.12824 14.9773 9.02275C14.8718 8.91726 14.8125 8.77418 14.8125 8.625V5.25C14.8125 5.10082 14.8718 4.95774 14.9773 4.85225C15.0827 4.74676 15.2258 4.6875 15.375 4.6875ZM13.125 5.25C13.125 4.65326 13.3621 4.08097 13.784 3.65901C14.206 3.23705 14.7783 3 15.375 3H18.75C19.3467 3 19.919 3.23705 20.341 3.65901C20.7629 4.08097 21 4.65326 21 5.25V8.625C21 9.22174 20.7629 9.79403 20.341 10.216C19.919 10.6379 19.3467 10.875 18.75 10.875H15.375C14.7783 10.875 14.206 10.6379 13.784 10.216C13.3621 9.79403 13.125 9.22174 13.125 8.625V5.25ZM18.75 14.8125H15.375C15.2258 14.8125 15.0827 14.8718 14.9773 14.9773C14.8718 15.0827 14.8125 15.2258 14.8125 15.375V18.75C14.8125 18.8992 14.8718 19.0423 14.9773 19.1477C15.0827 19.2532 15.2258 19.3125 15.375 19.3125H18.75C18.8992 19.3125 19.0423 19.2532 19.1477 19.1477C19.2532 19.0423 19.3125 18.8992 19.3125 18.75V15.375C19.3125 15.2258 19.2532 15.0827 19.1477 14.9773C19.0423 14.8718 18.8992 14.8125 18.75 14.8125ZM15.375 13.125C14.7783 13.125 14.206 13.3621 13.784 13.784C13.3621 14.206 13.125 14.7783 13.125 15.375V18.75C13.125 19.3467 13.3621 19.919 13.784 20.341C14.206 20.7629 14.7783 21 15.375 21H18.75C19.3467 21 19.919 20.7629 20.341 20.341C20.7629 19.919 21 19.3467 21 18.75V15.375C21 14.7783 20.7629 14.206 20.341 13.784C19.919 13.3621 19.3467 13.125 18.75 13.125H15.375ZM5.25 14.8125H8.625C8.77418 14.8125 8.91726 14.8718 9.02275 14.9773C9.12824 15.0827 9.1875 15.2258 9.1875 15.375V18.75C9.1875 18.8992 9.12824 19.0423 9.02275 19.1477C8.91726 19.2532 8.77418 19.3125 8.625 19.3125H5.25C5.10082 19.3125 4.95774 19.2532 4.85225 19.1477C4.74676 19.0423 4.6875 18.8992 4.6875 18.75V15.375C4.6875 15.2258 4.74676 15.0827 4.85225 14.9773C4.95774 14.8718 5.10082 14.8125 5.25 14.8125ZM3 15.375C3 14.7783 3.23705 14.206 3.65901 13.784C4.08097 13.3621 4.65326 13.125 5.25 13.125H8.625C9.22174 13.125 9.79403 13.3621 10.216 13.784C10.6379 14.206 10.875 14.7783 10.875 15.375V18.75C10.875 19.3467 10.6379 19.919 10.216 20.341C9.79403 20.7629 9.22174 21 8.625 21H5.25C4.65326 21 4.08097 20.7629 3.65901 20.341C3.23705 19.919 3 19.3467 3 18.75V15.375Z" fill="#1E1E1E"/>
</svg>
