<svg width="24" height="24" viewBox="0 0 24 24" fill="none" xmlns="http://www.w3.org/2000/svg">
<path d="M21 9.67416L14.3258 3L10.0787 8.66292C8.86517 8.5618 7.65169 8.76405 6.4382 9.37079C6.33708 9.37079 6.33708 9.47191 6.23596 9.47191C5.73034 9.77528 5.32584 10.0787 5.02247 10.382L8.76404 14.1236L3 19.8876V21H4.11236L9.8764 15.236L13.618 18.9775C14.0225 18.573 14.3258 18.1685 14.5281 17.764C14.6292 17.6629 14.6292 17.5618 14.7303 17.4607C15.3371 16.3483 15.5393 15.0337 15.3371 13.8202L21 9.67416ZM13.618 13.2135L13.7191 14.1236C13.8202 15.0337 13.7191 15.9438 13.3146 16.7528L7.24719 10.6854C8.05618 10.2809 8.96629 10.1798 9.8764 10.2809L10.7865 10.382L14.427 5.42697L18.573 9.57303L13.618 13.2135Z" fill="#1E1E1E"/>
</svg>
