<svg width="24" height="24" viewBox="0 0 24 24" fill="none" xmlns="http://www.w3.org/2000/svg">
<path d="M20.5 12.3548C20.5 12.7199 20.4014 13.0749 20.2189 13.3842L20.0385 13.2052L20.0375 13.2042L19.3321 13.913L19.3331 13.914L19.5572 14.1376L13.7911 19.9042L13.7905 19.9049C13.6026 20.0934 13.3793 20.243 13.1335 20.3452C12.8876 20.4473 12.624 20.4999 12.3578 20.5C12.0916 20.5001 11.828 20.4476 11.5821 20.3456C11.3362 20.2437 11.1128 20.0942 10.9248 19.9057L10.9243 19.9052L3.59354 12.5794C3.5935 12.5794 3.59347 12.5793 3.59343 12.5793C3.53347 12.5193 3.5 12.4388 3.5 12.3548V3.81811C3.5 3.73376 3.53351 3.65285 3.59318 3.59319C3.65284 3.53352 3.73378 3.5 3.81818 3.5H12.3531C12.4374 3.50012 12.5182 3.53369 12.5778 3.59333L12.578 3.59352L19.9111 10.9271C19.9113 10.9273 19.9114 10.9275 19.9116 10.9276C20.2885 11.307 20.5 11.8201 20.5 12.3548ZM19.8635 12.3546V12.3542C19.8631 11.9878 19.718 11.6364 19.4597 11.3764L19.4586 11.3752L12.3677 4.28271L12.2213 4.13622H12.0141H4.63635H4.13635V4.63622V12.0145V12.2217L4.28292 12.3682L11.3742 19.4545C11.3742 19.4546 11.3743 19.4546 11.3743 19.4546C11.5032 19.5839 11.6564 19.6865 11.825 19.7565C11.9937 19.8265 12.1746 19.8626 12.3572 19.8626C12.5399 19.8626 12.7207 19.8265 12.8894 19.7565C13.0581 19.6865 13.2113 19.5839 13.3402 19.4545L19.4596 13.3345L19.4613 13.3329C19.7191 13.0726 19.8637 12.721 19.8635 12.3546ZM8.59963 8.59912C8.48881 8.70993 8.33851 8.77218 8.18178 8.77218C8.02505 8.77218 7.87475 8.70993 7.76394 8.59912C7.65313 8.48832 7.59088 8.33805 7.59088 8.18137C7.59088 8.02469 7.65313 7.87442 7.76394 7.76361C7.87475 7.65281 8.02505 7.59055 8.18178 7.59055C8.33851 7.59055 8.48881 7.65281 8.59963 7.76361C8.71044 7.87442 8.77269 8.02469 8.77269 8.18137C8.77269 8.33805 8.71044 8.48832 8.59963 8.59912Z" fill="#1E1E1E" stroke="black"/>
</svg>
