<svg width="24" height="24" viewBox="0 0 24 24" fill="none" xmlns="http://www.w3.org/2000/svg">
<path d="M13.4795 3C9.41096 3 6.08219 6.32877 6.08219 10.3973C6.08219 12.1233 6.69863 13.726 7.68493 14.9589L3 19.6438L4.35616 21L9.0411 16.3151C10.274 17.3014 11.8767 17.9178 13.6027 17.9178C17.6712 17.9178 21 14.589 21 10.5205C21 6.45206 17.5479 3 13.4795 3ZM13.4795 15.9452C10.3973 15.9452 7.93151 13.4795 7.93151 10.3973C7.93151 7.31507 10.3973 4.84931 13.4795 4.84931C16.5616 4.84931 19.0274 7.31507 19.0274 10.3973C19.0274 13.4795 16.5616 15.9452 13.4795 15.9452Z" fill="#1E1E1E"/>
</svg>
